/' PROXY '/

@startuml Proxy

class Client

interface Subject {
    + request()
}

class RealSubject {
    + request()
}

class Proxy {
    + request()
}

hide empty members

Subject <|-- RealSubject
Subject <|-- Proxy
RealSubject <- Proxy : represents
Client --> Subject

note as N1
    <b><color:royalBlue>Proxy</color></b>
    <b>Type:</b> Structural
    Provide a surrogate or placeholder for
    another object to control access to it.
end note

@enduml